<svg width="432" height="220" viewBox="0 0 432 220" fill="none" xmlns="http://www.w3.org/2000/svg">
<mask id="path-1-inside-1_199_3695" fill="white">
<path d="M32.582 58.3423C21.7736 60.1634 11.2139 61.9392 0.676865 63.7151L0.111572 62.2785C0.224631 62.1994 0.337689 62.1089 0.439442 62.0071C10.773 51.7253 21.0839 41.4323 31.3157 31.0714C32.1185 30.257 32.8307 28.6734 32.8646 27.531C33.0116 23.4364 32.9099 19.3305 32.9212 15.2246C32.9664 6.76395 39.8404 -0.0452947 48.2858 -5.04898e-05C59.1508 0.0678158 70.0157 0.0904379 80.8806 0.101749C97.1724 0.124371 389.101 0.101749 405.393 0.101749C409.101 0.101749 412.809 0.0904379 416.529 0.101749C425.212 0.124371 431.294 6.16447 431.306 14.8287C431.328 29.2616 431.306 43.7058 431.306 58.1387C431.306 112.081 431.306 151.025 431.306 204.967C431.306 212.387 427.077 217.964 420.396 219.581C419.141 219.887 417.852 219.988 416.574 219.988C385.562 219.988 78.9021 219.988 47.8901 220C39.049 220 32.9212 213.869 32.9212 204.945C32.9212 152.19 32.9212 114.434 32.9212 61.6791V58.6138C32.9212 58.4328 32.7516 58.2858 32.5707 58.3197L32.582 58.3423Z"/>
</mask>
<path d="M32.582 58.3423C21.7736 60.1634 11.2139 61.9392 0.676865 63.7151L0.111572 62.2785C0.224631 62.1994 0.337689 62.1089 0.439442 62.0071C10.773 51.7253 21.0839 41.4323 31.3157 31.0714C32.1185 30.257 32.8307 28.6734 32.8646 27.531C33.0116 23.4364 32.9099 19.3305 32.9212 15.2246C32.9664 6.76395 39.8404 -0.0452947 48.2858 -5.04898e-05C59.1508 0.0678158 70.0157 0.0904379 80.8806 0.101749C97.1724 0.124371 389.101 0.101749 405.393 0.101749C409.101 0.101749 412.809 0.0904379 416.529 0.101749C425.212 0.124371 431.294 6.16447 431.306 14.8287C431.328 29.2616 431.306 43.7058 431.306 58.1387C431.306 112.081 431.306 151.025 431.306 204.967C431.306 212.387 427.077 217.964 420.396 219.581C419.141 219.887 417.852 219.988 416.574 219.988C385.562 219.988 78.9021 219.988 47.8901 220C39.049 220 32.9212 213.869 32.9212 204.945C32.9212 152.19 32.9212 114.434 32.9212 61.6791V58.6138C32.9212 58.4328 32.7516 58.2858 32.5707 58.3197L32.582 58.3423Z" fill="white" stroke="#E79776" stroke-width="4" mask="url(#path-1-inside-1_199_3695)"/>
</svg>
