<svg width="521" height="218" viewBox="0 0 521 218" fill="none" xmlns="http://www.w3.org/2000/svg">
<mask id="path-1-inside-1_199_3687" fill="white">
<path d="M90.4469 179.929C93.2511 192.607 95.9835 204.985 98.7158 217.344L96.4988 218C96.3789 217.863 96.2351 217.736 96.0913 217.617C80.2485 205.504 64.3817 193.41 48.407 181.397C47.1606 180.458 44.7039 179.629 42.9543 179.574C36.6387 179.401 30.3111 179.528 23.9836 179.501C10.945 179.465 0.447018 171.407 0.518922 161.5C0.614794 148.758 0.66273 136.007 0.686698 123.265C0.710666 104.162 0.686698 49.5122 0.686698 30.4085C0.686698 26.0518 0.66273 21.7043 0.686698 17.3476C0.734634 7.16692 10.0342 0.0303812 23.3844 0.0121525C45.6387 -0.0151906 67.893 0.0121525 90.1473 0.0121525C173.304 0.0121525 414.65 0.0121525 497.795 0.0121525C509.228 0.0121525 517.832 4.97036 520.325 12.7996C520.792 14.267 520.948 15.78 520.948 17.2838C520.96 53.6592 520.96 125.571 520.972 161.947C520.972 172.319 511.517 179.501 497.771 179.51C416.448 179.51 176.935 179.51 95.612 179.51H90.8903C90.6027 179.51 90.3869 179.702 90.4349 179.92L90.4469 179.929Z"/>
</mask>
<path d="M90.4469 179.929C93.2511 192.607 95.9835 204.985 98.7158 217.344L96.4988 218C96.3789 217.863 96.2351 217.736 96.0913 217.617C80.2485 205.504 64.3817 193.41 48.407 181.397C47.1606 180.458 44.7039 179.629 42.9543 179.574C36.6387 179.401 30.3111 179.528 23.9836 179.501C10.945 179.465 0.447018 171.407 0.518922 161.5C0.614794 148.758 0.66273 136.007 0.686698 123.265C0.710666 104.162 0.686698 49.5122 0.686698 30.4085C0.686698 26.0518 0.66273 21.7043 0.686698 17.3476C0.734634 7.16692 10.0342 0.0303812 23.3844 0.0121525C45.6387 -0.0151906 67.893 0.0121525 90.1473 0.0121525C173.304 0.0121525 414.65 0.0121525 497.795 0.0121525C509.228 0.0121525 517.832 4.97036 520.325 12.7996C520.792 14.267 520.948 15.78 520.948 17.2838C520.96 53.6592 520.96 125.571 520.972 161.947C520.972 172.319 511.517 179.501 497.771 179.51C416.448 179.51 176.935 179.51 95.612 179.51H90.8903C90.6027 179.51 90.3869 179.702 90.4349 179.92L90.4469 179.929Z" fill="white" stroke="#E79776" stroke-width="4" mask="url(#path-1-inside-1_199_3687)"/>
</svg>
