<svg width="76" height="327" viewBox="0 0 76 327" fill="none" xmlns="http://www.w3.org/2000/svg">
<mask id="path-1-inside-1_976_1591" fill="white">
<path d="M66.4306 0.724134C65.2301 7.09239 64.0211 13.4514 62.8206 19.8103C74.0058 21.7134 75.4008 23.2358 75.4008 33.271C75.4008 71.7497 75.3839 110.219 75.3839 148.698C75.3839 176.687 75.4008 288.289 75.4008 316.269C75.4008 323.695 71.6471 326.991 63.2095 327C46.1653 327 29.1295 327 12.0853 327C4.03664 327 0.206766 323.649 0.198311 316.556C0.181403 292.207 0.19831 184.243 0.19831 159.894C0.19831 123.921 0.19831 87.9582 0.206764 51.9858C0.206764 44.8099 0.172946 37.6341 0.206764 30.4582C0.240582 23.4865 4.04509 20.1724 11.9247 20.1724C21.5036 20.1724 31.0909 20.2467 40.6614 20.0981C42.2508 20.0703 44.1869 19.374 45.3283 18.4086C51.6607 13.0615 57.8155 7.54727 63.9873 2.06091C64.6045 1.5132 64.9257 0.696284 65.3823 4.57764e-05C65.7374 0.241408 66.084 0.482771 66.4391 0.724134H66.4306Z"/>
</mask>
<path d="M66.4306 0.724134C65.2301 7.09239 64.0211 13.4514 62.8206 19.8103C74.0058 21.7134 75.4008 23.2358 75.4008 33.271C75.4008 71.7497 75.3839 110.219 75.3839 148.698C75.3839 176.687 75.4008 288.289 75.4008 316.269C75.4008 323.695 71.6471 326.991 63.2095 327C46.1653 327 29.1295 327 12.0853 327C4.03664 327 0.206766 323.649 0.198311 316.556C0.181403 292.207 0.19831 184.243 0.19831 159.894C0.19831 123.921 0.19831 87.9582 0.206764 51.9858C0.206764 44.8099 0.172946 37.6341 0.206764 30.4582C0.240582 23.4865 4.04509 20.1724 11.9247 20.1724C21.5036 20.1724 31.0909 20.2467 40.6614 20.0981C42.2508 20.0703 44.1869 19.374 45.3283 18.4086C51.6607 13.0615 57.8155 7.54727 63.9873 2.06091C64.6045 1.5132 64.9257 0.696284 65.3823 4.57764e-05C65.7374 0.241408 66.084 0.482771 66.4391 0.724134H66.4306Z" fill="white" stroke="#E79776" stroke-width="4" mask="url(#path-1-inside-1_976_1591)"/>
</svg>
