<svg width="61" height="382" viewBox="0 0 61 382" fill="none" xmlns="http://www.w3.org/2000/svg">
<mask id="path-1-inside-1_199_3669" fill="white">
<path d="M7.89438 0.574128C8.83403 5.62405 9.78026 10.6666 10.7199 15.7092C1.96527 17.2183 0.873463 18.4255 0.873463 26.3832C0.873463 56.8962 0.886696 87.4018 0.886696 117.915C0.886696 140.109 1.1777 351.303 1.1777 373.49C1.1777 379.379 4.11576 381.993 10.7198 382C24.0602 382 37.394 382 50.7344 382C57.0341 382 60.0317 379.342 60.0383 373.718C60.0515 354.409 59.734 146.102 59.734 126.793C59.734 98.2673 59.734 69.7492 59.7274 41.2238C59.7274 35.5334 59.7539 29.8431 59.7274 24.1527C59.7009 18.6243 56.7232 15.9963 50.5559 15.9963C43.0585 15.9963 35.5545 16.0551 28.0638 15.9374C26.8197 15.9153 25.3044 15.3632 24.411 14.5976C19.4547 10.3574 14.6373 5.98476 9.80673 1.63417C9.32367 1.19985 9.07226 0.552044 8.71493 -6.10352e-05C8.437 0.191335 8.16569 0.382732 7.88776 0.574128H7.89438Z"/>
</mask>
<path d="M7.89438 0.574128C8.83403 5.62405 9.78026 10.6666 10.7199 15.7092C1.96527 17.2183 0.873463 18.4255 0.873463 26.3832C0.873463 56.8962 0.886696 87.4018 0.886696 117.915C0.886696 140.109 1.1777 351.303 1.1777 373.49C1.1777 379.379 4.11576 381.993 10.7198 382C24.0602 382 37.394 382 50.7344 382C57.0341 382 60.0317 379.342 60.0383 373.718C60.0515 354.409 59.734 146.102 59.734 126.793C59.734 98.2673 59.734 69.7492 59.7274 41.2238C59.7274 35.5334 59.7539 29.8431 59.7274 24.1527C59.7009 18.6243 56.7232 15.9963 50.5559 15.9963C43.0585 15.9963 35.5545 16.0551 28.0638 15.9374C26.8197 15.9153 25.3044 15.3632 24.411 14.5976C19.4547 10.3574 14.6373 5.98476 9.80673 1.63417C9.32367 1.19985 9.07226 0.552044 8.71493 -6.10352e-05C8.437 0.191335 8.16569 0.382732 7.88776 0.574128H7.89438Z" fill="white" stroke="#487181" stroke-width="4" mask="url(#path-1-inside-1_199_3669)"/>
</svg>
