<svg width="76" height="570" viewBox="0 0 76 570" fill="none" xmlns="http://www.w3.org/2000/svg">
<mask id="path-1-inside-1_199_3666" fill="white">
<path d="M67.0297 0.724057C65.8292 7.09232 64.6203 13.4513 63.4197 19.8103C74.605 21.7133 75.9999 23.2358 75.9999 33.2709C75.9999 71.7497 75.983 110.219 75.983 148.698C75.983 176.687 75.6112 531.289 75.6112 559.269C75.6112 566.695 71.8575 569.991 63.4199 570C46.3757 570 29.3399 570 12.2957 570C4.24704 570 0.417169 566.649 0.408714 559.556C0.391805 535.207 0.797465 184.243 0.797465 159.893C0.797465 123.921 0.797466 87.9581 0.805921 51.9858C0.805921 44.8099 0.772103 37.634 0.805921 30.4581C0.839739 23.4864 4.64425 20.1723 12.5238 20.1723C22.1027 20.1723 31.6901 20.2466 41.2606 20.0981C42.85 20.0702 44.7861 19.374 45.9274 18.4085C52.2598 13.0614 58.4147 7.54719 64.5865 2.06084C65.2036 1.51313 65.5248 0.696208 65.9814 -3.05176e-05C66.3365 0.241332 66.6831 0.482695 67.0382 0.724057H67.0297Z"/>
</mask>
<path d="M67.0297 0.724057C65.8292 7.09232 64.6203 13.4513 63.4197 19.8103C74.605 21.7133 75.9999 23.2358 75.9999 33.2709C75.9999 71.7497 75.983 110.219 75.983 148.698C75.983 176.687 75.6112 531.289 75.6112 559.269C75.6112 566.695 71.8575 569.991 63.4199 570C46.3757 570 29.3399 570 12.2957 570C4.24704 570 0.417169 566.649 0.408714 559.556C0.391805 535.207 0.797465 184.243 0.797465 159.893C0.797465 123.921 0.797466 87.9581 0.805921 51.9858C0.805921 44.8099 0.772103 37.634 0.805921 30.4581C0.839739 23.4864 4.64425 20.1723 12.5238 20.1723C22.1027 20.1723 31.6901 20.2466 41.2606 20.0981C42.85 20.0702 44.7861 19.374 45.9274 18.4085C52.2598 13.0614 58.4147 7.54719 64.5865 2.06084C65.2036 1.51313 65.5248 0.696208 65.9814 -3.05176e-05C66.3365 0.241332 66.6831 0.482695 67.0382 0.724057H67.0297Z" fill="white" stroke="#487181" stroke-width="4" mask="url(#path-1-inside-1_199_3666)"/>
</svg>
