<svg width="661" height="168" viewBox="0 0 661 168" fill="none" xmlns="http://www.w3.org/2000/svg">
<mask id="path-1-inside-1_199_3676" fill="white">
<path d="M616.399 0C613.986 13.5953 611.796 25.9154 609.508 38.847C616.974 38.847 624.125 39.205 631.214 38.7799C652.83 37.4972 660.717 44.0972 660.053 65.3963C659.183 93.2209 659.847 121.083 659.838 148.93C659.838 161.034 652.686 167.954 639.837 167.962C577.959 168.014 82.0171 167.902 20.139 167.842C7.19087 167.827 0.048323 161.034 0.0303769 148.93C-0.0144883 118.681 -0.00551525 88.4405 0.0303769 58.1922C0.048323 45.4769 7.23573 38.7426 20.7761 38.7351C58.9743 38.7128 531.218 38.9141 569.417 38.7053C572.288 38.6904 575.823 37.3033 577.905 35.4389C589.31 25.2144 600.347 14.6394 611.527 4.19867C612.765 3.03527 614.111 1.96883 616.417 0L616.399 0Z"/>
</mask>
<path d="M616.399 0C613.986 13.5953 611.796 25.9154 609.508 38.847C616.974 38.847 624.125 39.205 631.214 38.7799C652.83 37.4972 660.717 44.0972 660.053 65.3963C659.183 93.2209 659.847 121.083 659.838 148.93C659.838 161.034 652.686 167.954 639.837 167.962C577.959 168.014 82.0171 167.902 20.139 167.842C7.19087 167.827 0.048323 161.034 0.0303769 148.93C-0.0144883 118.681 -0.00551525 88.4405 0.0303769 58.1922C0.048323 45.4769 7.23573 38.7426 20.7761 38.7351C58.9743 38.7128 531.218 38.9141 569.417 38.7053C572.288 38.6904 575.823 37.3033 577.905 35.4389C589.31 25.2144 600.347 14.6394 611.527 4.19867C612.765 3.03527 614.111 1.96883 616.417 0L616.399 0Z" fill="white" stroke="#E79776" stroke-width="4" mask="url(#path-1-inside-1_199_3676)"/>
</svg>
