<svg width="24" height="24" viewBox="0 0 24 24" fill="none" xmlns="http://www.w3.org/2000/svg">
<path d="M21.5661 10.6824C21.9585 10.298 22.0987 9.73729 21.9305 9.21266C21.7623 8.68803 21.3178 8.31558 20.7731 8.23548L15.9313 7.53064C15.7271 7.5026 15.5468 7.37044 15.4547 7.18622L13.2841 2.80096C13.0398 2.30837 12.5472 2 11.9986 2C11.4499 2 10.9573 2.30437 10.713 2.80096L8.54644 7.19023C8.45433 7.37845 8.27412 7.50661 8.06987 7.53464L3.22806 8.23949C2.68341 8.31958 2.23888 8.69203 2.07067 9.21666C1.90247 9.74129 2.03864 10.302 2.43511 10.6864L5.93932 14.1025C6.08749 14.2467 6.15558 14.459 6.12354 14.6632L5.29855 19.485C5.22646 19.9095 5.3386 20.322 5.61092 20.6464C6.03944 21.155 6.78433 21.3072 7.37704 20.9948L11.7062 18.7161C11.8865 18.6199 12.1147 18.6199 12.2949 18.7161L16.6241 20.9948C16.8364 21.1069 17.0607 21.163 17.2929 21.163C17.7175 21.163 18.1179 20.9748 18.3943 20.6464C18.6706 20.322 18.7787 19.9055 18.7066 19.485L17.8816 14.6632C17.8456 14.459 17.9137 14.2467 18.0659 14.1025L21.5701 10.6864L21.5661 10.6824Z" fill="black"/>
</svg>
