<svg width="24" height="24" viewBox="0 0 24 24" fill="none" xmlns="http://www.w3.org/2000/svg">
<g clip-path="url(#clip0_439_6855)">
<path d="M21.6758 8.92107L12.2621 4.23357C12.0973 4.15115 11.9028 4.15115 11.7379 4.23357L2.32425 8.92107C2.03479 9.06599 1.91761 9.41755 2.06214 9.7074C2.20667 9.99724 2.5594 10.1133 2.84846 9.96951L4.38323 9.22146V21.1636C4.38323 21.4875 4.64534 21.7496 4.96917 21.7496H19.0313C19.3551 21.7496 19.6172 21.4875 19.6172 21.1636V9.22146L21.152 9.96951C21.4442 10.1144 21.7942 9.9949 21.9383 9.7074C22.0832 9.41794 21.9657 9.06599 21.6762 8.92107H21.6758ZM13.5969 18.2191C13.2164 18.5437 12.8114 18.8886 12.3856 19.2609C12.275 19.3578 12.1379 19.4058 12 19.4058C11.8621 19.4058 11.7246 19.3578 11.6145 19.2609C11.1887 18.8883 10.7836 18.5433 10.4032 18.2191C8.18948 16.3328 6.72698 15.0863 6.72698 13.1855C6.72698 11.4168 8.0137 10.0308 9.65667 10.0308C10.8203 10.0308 11.5586 10.6953 12.0004 11.3371C12.4422 10.6949 13.1801 10.0308 14.3442 10.0308C15.9871 10.0308 17.2739 11.4168 17.2739 13.1855C17.2739 15.0863 15.8114 16.3324 13.5977 18.2191H13.5969Z" fill="black"/>
<path d="M14.3438 11.2031C13.025 11.2031 12.5696 12.807 12.5653 12.823C12.4258 13.3316 11.577 13.3316 11.4356 12.8254C11.4168 12.759 10.9614 11.2031 9.65588 11.2031C8.65393 11.2031 7.89807 12.0559 7.89807 13.1859C7.89807 14.5453 9.12659 15.5926 11.1625 17.3273C11.4301 17.5551 11.7094 17.7937 11.9996 18.0437C12.2899 17.7937 12.5688 17.5551 12.8367 17.3273C14.8727 15.5926 16.1012 14.5453 16.1012 13.1859C16.1012 12.0559 15.3453 11.2031 14.3434 11.2031H14.3438Z" fill="black"/>
<path d="M17.8594 3H16.6875C16.3637 3 16.1016 3.26211 16.1016 3.58594V4.84297L18.4453 6.01484V3.58594C18.4453 3.26211 18.1832 3 17.8594 3Z" fill="black"/>
</g>
<defs>
<clipPath id="clip0_439_6855">
<rect width="20" height="18.7496" fill="white" transform="translate(2 3)"/>
</clipPath>
</defs>
</svg>
