<svg width="24" height="24" viewBox="0 0 24 24" fill="none" xmlns="http://www.w3.org/2000/svg">
<path d="M11.9941 4.65977C7.63471 0.84688 2.09213 4.19688 2.00112 8.73868C1.97807 9.8961 2.31205 11.0234 2.97729 12.0629H7.28823L8.05502 10.7848C8.27768 10.4137 8.81635 10.402 9.0519 10.7719L10.6695 13.3141L13.0277 8.33594C13.2331 7.90157 13.846 7.8879 14.073 8.30899L16.0945 12.0629H21.0121C24.6546 6.36954 17.4554 -0.1164 11.9949 4.65977H11.9941Z" fill="black"/>
<path d="M15.228 12.9265L13.5901 9.88428L11.2737 14.7741C11.0769 15.1901 10.4972 15.2265 10.2499 14.8378L8.57139 12.2003L8.12178 12.9499C8.01592 13.1265 7.82529 13.2343 7.61943 13.2343H3.90381C4.02021 13.3562 3.39951 12.7366 11.5808 20.8757C11.8093 21.103 12.1788 21.103 12.4073 20.8757C20.4628 12.862 19.9683 13.3562 20.0843 13.2343H15.7437C15.528 13.2343 15.33 13.1159 15.2276 12.9261L15.228 12.9265Z" fill="black"/>
</svg>
