<svg width="26" height="26" viewBox="0 0 26 26" fill="none" xmlns="http://www.w3.org/2000/svg">
<path d="M13 0.5C6.10742 0.5 0.5 6.10742 0.5 13C0.5 19.8926 6.10742 25.5 13 25.5C19.8926 25.5 25.5 19.8926 25.5 13C25.5 6.10742 19.8926 0.5 13 0.5ZM17.603 16.1304C18.0103 16.5376 18.0103 17.1958 17.603 17.6035C17.3999 17.8066 17.1333 17.9087 16.8662 17.9087C16.5991 17.9087 16.333 17.8066 16.1299 17.6035L12.9995 14.4731L9.86914 17.6035C9.66602 17.8066 9.39941 17.9087 9.13281 17.9087C8.86621 17.9087 8.59912 17.8066 8.396 17.6035C7.98877 17.1963 7.98877 16.5381 8.396 16.1304L11.5264 13L8.396 9.86963C7.98877 9.4624 7.98877 8.8042 8.396 8.39648C8.80322 7.98926 9.46143 7.98926 9.86914 8.39648L12.9995 11.5269L16.1299 8.39648C16.5371 7.98926 17.1953 7.98926 17.603 8.39648C18.0103 8.80371 18.0103 9.46191 17.603 9.86963L14.4727 13L17.603 16.1304Z" fill="white"/>
</svg>
