<svg width="24" height="24" viewBox="0 0 24 24" fill="none" xmlns="http://www.w3.org/2000/svg">
<path d="M21.6641 11.416L18.633 8.38489V4.88348C18.633 4.25045 18.1199 3.73733 17.4861 3.73733C16.8522 3.73733 16.3403 4.25045 16.3403 4.88348V6.0922L14.0836 3.83544C12.9677 2.72038 11.0279 2.72199 9.91441 3.83746L2.33549 11.416C1.88817 11.8641 1.88817 12.5896 2.33549 13.0373C2.78321 13.4854 3.50989 13.4854 3.95721 13.0373L11.5353 5.45837C11.7824 5.21291 12.2172 5.21291 12.4631 5.45756L20.0424 13.0373C20.2673 13.2614 20.5604 13.3728 20.853 13.3728C21.1457 13.3728 21.44 13.2614 21.6641 13.0373C22.1118 12.5896 22.1118 11.8645 21.6641 11.416Z" fill="black"/>
<path d="M12.3981 7.63401C12.1781 7.41399 11.8212 7.41399 11.602 7.63401L4.93547 14.2985C4.8301 14.4039 4.77075 14.5472 4.77075 14.6974V19.5581C4.77075 20.6986 5.69566 21.6235 6.83615 21.6235H10.1365V16.5121H13.8628V21.6235H17.1636C18.3041 21.6235 19.229 20.6986 19.229 19.5581V14.6974C19.229 14.5476 19.17 14.4039 19.0643 14.2985L12.3985 7.63401H12.3981Z" fill="black"/>
</svg>
