<svg width="24" height="24" viewBox="0 0 24 24" fill="none" xmlns="http://www.w3.org/2000/svg">
<g clip-path="url(#clip0_439_6851)">
<path d="M2.17192 13.5859C2.40083 13.8148 2.77153 13.8148 3.00044 13.5859L4.00044 12.5855H5.62661C5.777 13.309 6.18794 13.957 6.79341 14.3855C6.74888 14.5641 6.72661 14.7461 6.72661 14.9293C6.72661 15.3625 6.85278 15.7641 7.05864 16.1125L5.8981 17.273H4.48364C4.15981 17.273 3.89771 17.5351 3.89771 17.859C3.89771 18.1828 4.15981 18.4449 4.48364 18.4449H5.55474V19.516C5.55474 19.8398 5.81685 20.1019 6.14067 20.1019C6.4645 20.1019 6.72661 19.8398 6.72661 19.516V18.1016L7.88716 16.941C8.2356 17.1469 8.63716 17.273 9.07036 17.273C9.25356 17.273 9.4356 17.2508 9.61411 17.2062C10.043 17.8121 10.6907 18.223 11.4141 18.373V19.9992L10.4141 20.9996C10.1852 21.2285 10.1852 21.5992 10.4141 21.8281C10.643 22.057 11.0137 22.057 11.2426 21.8281L12 21.0707L12.7575 21.8281C12.9864 22.057 13.3571 22.057 13.586 21.8281C13.8149 21.5992 13.8149 21.2285 13.586 20.9996L12.5856 19.9992V18.373C13.309 18.2226 13.9571 17.8117 14.3856 17.2062C14.5641 17.2508 14.7461 17.273 14.9293 17.273C15.3625 17.273 15.7641 17.1469 16.1125 16.941L17.2731 18.1016V19.516C17.2731 19.8398 17.5352 20.1019 17.859 20.1019C18.1829 20.1019 18.445 19.8398 18.445 19.516V18.4449H19.5161C19.8399 18.4449 20.102 18.1828 20.102 17.859C20.102 17.5351 19.8399 17.273 19.5161 17.273H18.1016L16.9411 16.1125C17.1469 15.7641 17.2731 15.3625 17.2731 14.9293C17.2731 14.7461 17.2508 14.5641 17.2063 14.3855C17.8122 13.9566 18.2231 13.309 18.3731 12.5855H19.9993L20.9997 13.5859C21.2286 13.8148 21.5993 13.8148 21.8282 13.5859C22.0571 13.357 22.0571 12.9863 21.8282 12.7574L21.0708 12L21.8282 11.2422C22.0571 11.0133 22.0571 10.6426 21.8282 10.4137C21.5993 10.1848 21.2286 10.1848 20.9997 10.4137L19.9993 11.4141H18.3731C18.2227 10.6906 17.8118 10.043 17.2063 9.61405C17.2508 9.43553 17.2731 9.2535 17.2731 9.0703C17.2731 8.6371 17.1469 8.23553 16.9411 7.8871L18.1016 6.72655H19.5161C19.8399 6.72655 20.102 6.46444 20.102 6.14061C20.102 5.81678 19.8399 5.55468 19.5161 5.55468H18.445V4.48358C18.445 4.15975 18.1829 3.89764 17.859 3.89764C17.5352 3.89764 17.2731 4.15975 17.2731 4.48358V5.89803L16.1125 7.05858C15.7641 6.85272 15.3625 6.72655 14.9293 6.72655C14.7461 6.72655 14.5641 6.74882 14.3856 6.79335C13.9567 6.18749 13.309 5.77655 12.5856 5.62655V4.00038L13.586 3.00038C13.8149 2.77147 13.8149 2.40077 13.586 2.17186C13.3571 1.94296 12.9864 1.94296 12.7575 2.17186L12 2.92928L11.2422 2.17186C11.0133 1.94296 10.6426 1.94296 10.4137 2.17186C10.1848 2.40077 10.1848 2.77147 10.4137 3.00038L11.4141 4.00038V5.62655C10.6907 5.77694 10.043 6.18788 9.61411 6.79335C9.4356 6.74882 9.25356 6.72655 9.07036 6.72655C8.63716 6.72655 8.2356 6.85272 7.88716 7.05858L6.72661 5.89803V4.48358C6.72661 4.15975 6.4645 3.89764 6.14067 3.89764C5.81685 3.89764 5.55474 4.15975 5.55474 4.48358V5.55468H4.48364C4.15981 5.55468 3.89771 5.81678 3.89771 6.14061C3.89771 6.46444 4.15981 6.72655 4.48364 6.72655H5.8981L7.05864 7.8871C6.85278 8.23553 6.72661 8.6371 6.72661 9.0703C6.72661 9.2535 6.74888 9.43553 6.79341 9.61405C6.18755 10.043 5.77661 10.6906 5.62661 11.4141H4.00044L3.00044 10.4141C2.77153 10.1851 2.40083 10.1851 2.17192 10.4141C1.94302 10.643 1.94302 11.0137 2.17192 11.2426L2.92935 12L2.17192 12.7574C1.94302 12.9863 1.94302 13.357 2.17192 13.5859ZM15.5161 11.4141C15.8395 11.4141 16.102 11.6765 16.102 12C16.102 12.3234 15.8395 12.5859 15.5161 12.5859C15.1926 12.5859 14.9301 12.3234 14.9301 12C14.9301 11.6765 15.1926 11.4141 15.5161 11.4141ZM12.0004 16.1016C11.677 16.1016 11.4145 15.8391 11.4145 15.5156C11.4145 15.1922 11.677 14.9297 12.0004 14.9297C12.3239 14.9297 12.5864 15.1922 12.5864 15.5156C12.5864 15.8391 12.3239 16.1016 12.0004 16.1016ZM12.0004 7.89843C12.3239 7.89843 12.5864 8.16092 12.5864 8.48436C12.5864 8.8078 12.3239 9.0703 12.0004 9.0703C11.677 9.0703 11.4145 8.8078 11.4145 8.48436C11.4145 8.16092 11.677 7.89843 12.0004 7.89843ZM12.0004 10.2422C12.9696 10.2422 13.7583 11.0308 13.7583 12C13.7583 12.9691 12.9696 13.7578 12.0004 13.7578C11.0313 13.7578 10.2426 12.9691 10.2426 12C10.2426 11.0308 11.0313 10.2422 12.0004 10.2422ZM9.07075 12C9.07075 12.3234 8.80825 12.5859 8.48481 12.5859C8.16138 12.5859 7.89888 12.3234 7.89888 12C7.89888 11.6765 8.16138 11.4141 8.48481 11.4141C8.80825 11.4141 9.07075 11.6765 9.07075 12Z" fill="black"/>
<path d="M12 12.5859C12.3236 12.5859 12.5859 12.3236 12.5859 12C12.5859 11.6764 12.3236 11.4141 12 11.4141C11.6764 11.4141 11.4141 11.6764 11.4141 12C11.4141 12.3236 11.6764 12.5859 12 12.5859Z" fill="black"/>
</g>
<defs>
<clipPath id="clip0_439_6851">
<rect width="20" height="20" fill="white" transform="translate(2 2)"/>
</clipPath>
</defs>
</svg>
