<svg width="152" height="24" viewBox="0 0 152 24" fill="none" xmlns="http://www.w3.org/2000/svg">
<path d="M21.5661 10.6824C21.9585 10.298 22.0987 9.73729 21.9305 9.21266C21.7623 8.68803 21.3178 8.31558 20.7731 8.23548L15.9313 7.53064C15.7271 7.5026 15.5468 7.37044 15.4547 7.18622L13.2841 2.80096C13.0398 2.30837 12.5472 2 11.9986 2C11.4499 2 10.9573 2.30437 10.713 2.80096L8.54644 7.19023C8.45433 7.37845 8.27412 7.50661 8.06987 7.53464L3.22806 8.23949C2.68341 8.31958 2.23888 8.69203 2.07067 9.21666C1.90247 9.74129 2.03864 10.302 2.43511 10.6864L5.93932 14.1025C6.08749 14.2467 6.15558 14.459 6.12354 14.6632L5.29855 19.485C5.22646 19.9095 5.3386 20.322 5.61092 20.6464C6.03944 21.155 6.78433 21.3072 7.37704 20.9948L11.7062 18.7161C11.8865 18.6199 12.1147 18.6199 12.2949 18.7161L16.6241 20.9948C16.8364 21.1069 17.0607 21.163 17.2929 21.163C17.7175 21.163 18.1179 20.9748 18.3943 20.6464C18.6706 20.322 18.7787 19.9055 18.7066 19.485L17.8816 14.6632C17.8456 14.459 17.9137 14.2467 18.0659 14.1025L21.5701 10.6864L21.5661 10.6824Z" fill="#E79776"/>
<path d="M53.5661 10.6824C53.9585 10.298 54.0987 9.73729 53.9305 9.21266C53.7623 8.68803 53.3178 8.31558 52.7731 8.23548L47.9313 7.53064C47.7271 7.5026 47.5468 7.37044 47.4547 7.18622L45.2841 2.80096C45.0398 2.30837 44.5472 2 43.9986 2C43.4499 2 42.9573 2.30437 42.713 2.80096L40.5464 7.19023C40.4543 7.37845 40.2741 7.50661 40.0699 7.53464L35.2281 8.23949C34.6834 8.31958 34.2389 8.69203 34.0707 9.21666C33.9025 9.74129 34.0386 10.302 34.4351 10.6864L37.9393 14.1025C38.0875 14.2467 38.1556 14.459 38.1235 14.6632L37.2985 19.485C37.2265 19.9095 37.3386 20.322 37.6109 20.6464C38.0394 21.155 38.7843 21.3072 39.377 20.9948L43.7062 18.7161C43.8865 18.6199 44.1147 18.6199 44.2949 18.7161L48.6241 20.9948C48.8364 21.1069 49.0607 21.163 49.2929 21.163C49.7175 21.163 50.1179 20.9748 50.3943 20.6464C50.6706 20.322 50.7787 19.9055 50.7066 19.485L49.8816 14.6632C49.8456 14.459 49.9137 14.2467 50.0659 14.1025L53.5701 10.6864L53.5661 10.6824Z" fill="#E79776"/>
<path d="M85.5661 10.6824C85.9585 10.298 86.0987 9.73729 85.9305 9.21266C85.7623 8.68803 85.3178 8.31558 84.7731 8.23548L79.9313 7.53064C79.7271 7.5026 79.5468 7.37044 79.4547 7.18622L77.2841 2.80096C77.0398 2.30837 76.5472 2 75.9986 2C75.4499 2 74.9573 2.30437 74.713 2.80096L72.5464 7.19023C72.4543 7.37845 72.2741 7.50661 72.0699 7.53464L67.2281 8.23949C66.6834 8.31958 66.2389 8.69203 66.0707 9.21666C65.9025 9.74129 66.0386 10.302 66.4351 10.6864L69.9393 14.1025C70.0875 14.2467 70.1556 14.459 70.1235 14.6632L69.2985 19.485C69.2265 19.9095 69.3386 20.322 69.6109 20.6464C70.0394 21.155 70.7843 21.3072 71.377 20.9948L75.7062 18.7161C75.8865 18.6199 76.1147 18.6199 76.2949 18.7161L80.6241 20.9948C80.8364 21.1069 81.0607 21.163 81.2929 21.163C81.7175 21.163 82.1179 20.9748 82.3943 20.6464C82.6706 20.322 82.7787 19.9055 82.7066 19.485L81.8816 14.6632C81.8456 14.459 81.9137 14.2467 82.0659 14.1025L85.5701 10.6864L85.5661 10.6824Z" fill="#E79776"/>
<path d="M117.566 10.6824C117.959 10.298 118.099 9.73729 117.931 9.21266C117.762 8.68803 117.318 8.31558 116.773 8.23548L111.931 7.53064C111.727 7.5026 111.547 7.37044 111.455 7.18622L109.284 2.80096C109.04 2.30837 108.547 2 107.999 2C107.45 2 106.957 2.30437 106.713 2.80096L104.546 7.19023C104.454 7.37845 104.274 7.50661 104.07 7.53464L99.2281 8.23949C98.6834 8.31958 98.2389 8.69203 98.0707 9.21666C97.9025 9.74129 98.0386 10.302 98.4351 10.6864L101.939 14.1025C102.087 14.2467 102.156 14.459 102.124 14.6632L101.299 19.485C101.226 19.9095 101.339 20.322 101.611 20.6464C102.039 21.155 102.784 21.3072 103.377 20.9948L107.706 18.7161C107.886 18.6199 108.115 18.6199 108.295 18.7161L112.624 20.9948C112.836 21.1069 113.061 21.163 113.293 21.163C113.717 21.163 114.118 20.9748 114.394 20.6464C114.671 20.322 114.779 19.9055 114.707 19.485L113.882 14.6632C113.846 14.459 113.914 14.2467 114.066 14.1025L117.57 10.6864L117.566 10.6824Z" fill="#E79776"/>
<path d="M149.566 10.6824C149.959 10.298 150.099 9.73729 149.931 9.21266C149.762 8.68803 149.318 8.31558 148.773 8.23548L143.931 7.53064C143.727 7.5026 143.547 7.37044 143.455 7.18622L141.284 2.80096C141.04 2.30837 140.547 2 139.999 2C139.45 2 138.957 2.30437 138.713 2.80096L136.546 7.19023C136.454 7.37845 136.274 7.50661 136.07 7.53464L131.228 8.23949C130.683 8.31958 130.239 8.69203 130.071 9.21666C129.902 9.74129 130.039 10.302 130.435 10.6864L133.939 14.1025C134.087 14.2467 134.156 14.459 134.124 14.6632L133.299 19.485C133.226 19.9095 133.339 20.322 133.611 20.6464C134.039 21.155 134.784 21.3072 135.377 20.9948L139.706 18.7161C139.886 18.6199 140.115 18.6199 140.295 18.7161L144.624 20.9948C144.836 21.1069 145.061 21.163 145.293 21.163C145.717 21.163 146.118 20.9748 146.394 20.6464C146.671 20.322 146.779 19.9055 146.707 19.485L145.882 14.6632C145.846 14.459 145.914 14.2467 146.066 14.1025L149.57 10.6864L149.566 10.6824Z" fill="#E79776"/>
</svg>
