<svg width="24" height="24" viewBox="0 0 24 24" fill="none" xmlns="http://www.w3.org/2000/svg">
<path d="M10.2773 12.1578C10.3383 12.2175 10.3727 12.2996 10.3715 12.3851C10.3723 12.5613 10.2297 12.705 10.0531 12.7054C10.0531 12.7054 10.0523 12.7054 10.052 12.7054H8.77344C8.59688 12.7046 8.45352 12.5617 8.45313 12.3851V9.97026C8.45274 9.88472 8.48672 9.80308 8.54727 9.74292C8.67188 9.61792 8.87383 9.61753 8.99883 9.74214C9.05938 9.80269 9.09336 9.88472 9.09258 9.97026V12.0644H10.0516C10.1359 12.0636 10.2172 12.0972 10.2766 12.1578H10.2773Z" fill="black"/>
<path d="M11.0649 9.65112H10.925C10.787 9.65112 10.675 9.76305 10.675 9.90112V12.4546C10.675 12.5927 10.787 12.7046 10.925 12.7046H11.0649C11.203 12.7046 11.3149 12.5927 11.3149 12.4546V9.90112C11.3149 9.76305 11.203 9.65112 11.0649 9.65112Z" fill="black"/>
<path d="M14.2863 9.97031V12.3715C14.2863 12.5512 14.1441 12.6984 13.9648 12.7043C13.8839 12.7031 13.8066 12.6715 13.7476 12.6156C13.7363 12.6066 13.3066 12.0473 12.9417 11.5769C12.6691 11.2258 12.4327 10.9191 12.4327 10.9191V12.384C12.4335 12.5601 12.2909 12.7039 12.1144 12.7043C12.0339 12.7043 11.9566 12.6746 11.8972 12.6203C11.8304 12.5598 11.7925 12.4738 11.7925 12.384V9.98398C11.7902 9.80859 11.9257 9.66249 12.1003 9.65117C12.1968 9.6496 12.289 9.6914 12.3515 9.76484C12.3652 9.78085 13.0253 10.6398 13.3968 11.1285C13.5445 11.3195 13.6468 11.4535 13.6468 11.4535V9.97617C13.648 9.80038 13.7902 9.6582 13.9659 9.65703C14.1402 9.65703 14.2824 9.79648 14.2851 9.9707L14.2863 9.97031Z" fill="black"/>
<path d="M15.4091 10.2953V10.8637H16.3669C16.5431 10.8637 16.686 11.0067 16.686 11.1828C16.686 11.359 16.5431 11.502 16.3669 11.502H15.4091V12.0703H16.3669C16.5435 12.0598 16.6954 12.1945 16.706 12.3711C16.7165 12.5477 16.5817 12.6996 16.4052 12.7102C16.3923 12.711 16.3798 12.711 16.3669 12.7102H15.0853C14.9087 12.7094 14.7661 12.5664 14.7661 12.3899V9.97072C14.7669 9.79455 14.9095 9.65197 15.0853 9.65158H16.3638C16.5403 9.64103 16.6923 9.7758 16.7028 9.95236C16.7134 10.1289 16.5786 10.2809 16.4021 10.2914C16.3892 10.2922 16.3767 10.2922 16.3638 10.2914L15.4091 10.2961V10.2953Z" fill="black"/>
<path d="M19.2727 2H4.72734C3.22109 2 2 3.22109 2 4.72734V19.2727C2 20.7789 3.22109 22 4.72734 22H19.2727C20.7789 22 22 20.7789 22 19.2727V4.72734C22 3.22109 20.7789 2 19.2727 2ZM18.25 11.3184C18.241 11.4453 18.2246 11.5719 18.2012 11.6969C18.1223 12.1758 17.9602 12.6371 17.7227 13.0605C17.609 13.2629 17.0625 14.0309 16.8953 14.2332C15.9715 15.3457 14.4238 16.6297 11.8375 17.8785C11.668 17.9605 11.4641 17.8895 11.3824 17.7199C11.3551 17.6633 11.3438 17.6004 11.35 17.5379L11.4809 16.3641C11.5016 16.177 11.3668 16.0086 11.1797 15.9879C10.3191 15.902 9.48125 15.6629 8.70469 15.282C6.93203 14.4059 5.75 12.841 5.75 11.0582C5.75 8.31289 8.54766 6.09102 12 6.09102C13.734 6.09102 15.3023 6.65937 16.4316 7.56016C17.4895 8.40664 18.1668 9.55547 18.2395 10.8305C18.2516 10.9926 18.2551 11.1555 18.2496 11.318L18.25 11.3184Z" fill="black"/>
</svg>
