<svg width="24" height="24" viewBox="0 0 24 24" fill="none" xmlns="http://www.w3.org/2000/svg">
<path d="M11.9998 2C6.47729 2 2 6.47729 2 11.9998C2 17.5223 6.47729 21.9996 11.9998 21.9996C17.5223 21.9996 21.9996 17.5223 21.9996 11.9998C21.9939 6.47947 17.5201 2.0061 11.9998 2ZM3.39534 11.9998C3.39708 11.0366 3.56191 10.0803 3.88284 9.17204C4.45972 13.3672 8.13949 13.7217 8.29777 14.3906C8.38498 15.1441 8.40678 15.9032 8.36274 16.6602C8.42771 17.9531 10.2137 17.9718 10.9023 18.9952C11.1443 19.4797 11.2385 20.0247 11.173 20.5628C6.76465 20.1324 3.40144 16.4291 3.39534 12.0002V11.9998ZM14.3348 20.2789C14.9684 18.2949 16.8704 17.6221 17.064 16.4753C17.2192 15.5553 16.0101 15.08 14.9243 14.9505C13.8386 14.821 14.0051 13.6995 13.2399 12.9041C12.4746 12.1088 11.9758 12.1524 10.9005 12.2876C9.82523 12.4227 8.90518 12.3342 8.60475 11.6727C8.30431 11.0113 8.6876 10.6951 7.89705 9.87538C7.57438 9.56622 7.56348 9.05387 7.87263 8.7312C7.98687 8.61172 8.13513 8.53062 8.2969 8.49792C8.85504 8.36318 9.84747 9.33512 10.4292 9.22088C12.1799 8.85983 10.0812 5.43123 12.7118 4.5696C13.195 4.40478 13.5931 4.05551 13.8198 3.59853C15.2954 3.92077 16.6598 4.62672 17.7752 5.64489C18.0996 6.39052 18.216 7.21028 18.1109 8.01696C17.7604 9.10271 16.8765 9.8841 17.8401 11.6597C18.8457 13.5146 19.4662 13.7666 19.9183 13.256C20.0949 13.062 20.3164 12.9133 20.5628 12.8235C20.2188 16.3537 17.7473 19.3122 14.3348 20.2794V20.2789Z" fill="black"/>
</svg>
