<svg width="24" height="24" viewBox="0 0 24 24" fill="none" xmlns="http://www.w3.org/2000/svg">
<path d="M16.6875 5.55469H7.3125C6.34336 5.55469 5.55469 6.34336 5.55469 7.3125V16.6875C5.55469 17.6566 6.34336 18.4453 7.3125 18.4453H16.6875C17.6566 18.4453 18.4453 17.6566 18.4453 16.6875V7.3125C18.4453 6.34336 17.6566 5.55469 16.6875 5.55469ZM12 16.1016C9.73867 16.1016 7.89844 14.2613 7.89844 12C7.89844 9.73867 9.73867 7.89844 12 7.89844C14.2613 7.89844 16.1016 9.73867 16.1016 12C16.1016 14.2613 14.2613 16.1016 12 16.1016ZM16.1016 9.07031C15.4555 9.07031 14.9297 8.54453 14.9297 7.89844C14.9297 7.25234 15.4555 6.72656 16.1016 6.72656C16.7477 6.72656 17.2734 7.25234 17.2734 7.89844C17.2734 8.54453 16.7477 9.07031 16.1016 9.07031Z" fill="black"/>
<path d="M12 9.07031C10.3848 9.07031 9.07031 10.3848 9.07031 12C9.07031 13.6152 10.3848 14.9297 12 14.9297C13.6152 14.9297 14.9297 13.6152 14.9297 12C14.9297 10.3848 13.6152 9.07031 12 9.07031Z" fill="black"/>
<path d="M19.0312 2H4.96875C3.35352 2 2 3.35352 2 4.96875V19.0312C2 20.6465 3.35352 22 4.96875 22H19.0312C20.6465 22 22 20.6465 22 19.0312V4.96875C22 3.35352 20.6465 2 19.0312 2ZM19.6172 16.6875C19.6172 18.3027 18.3027 19.6172 16.6875 19.6172H7.3125C5.69727 19.6172 4.38281 18.3027 4.38281 16.6875V7.3125C4.38281 5.69727 5.69727 4.38281 7.3125 4.38281H16.6875C18.3027 4.38281 19.6172 5.69727 19.6172 7.3125V16.6875Z" fill="black"/>
</svg>
