<svg width="24" height="24" viewBox="0 0 24 24" fill="none" xmlns="http://www.w3.org/2000/svg">
<path d="M21.2336 5.72856C20.466 4.6727 19.1222 3.71958 17.4492 3.04497C15.7855 2.37387 13.8535 2.00278 12.0093 2.00004C10.1652 1.99536 8.23082 2.36254 6.56441 3.02856C4.88863 3.69809 3.54137 4.64731 2.77144 5.70044C2.03199 6.71215 1.81871 7.80278 2.15504 8.85434C2.3734 9.53637 3.00973 9.99536 3.73941 9.99653L6.23746 9.99887H6.2398C6.73785 9.99887 7.20582 9.7809 7.52379 9.40044C7.83863 9.02426 7.96871 8.53208 7.8816 8.05083C7.87887 8.03676 7.87574 8.0227 7.87223 8.00864L7.74058 7.4977C8.46832 7.15044 10.1175 6.47934 12.0011 6.48989C13.8836 6.49965 15.5316 7.17036 16.2601 7.51762L16.1265 8.02583C16.1226 8.04028 16.1195 8.05473 16.1168 8.06919C16.0281 8.55044 16.157 9.04262 16.4707 9.41958C16.7882 9.80161 17.2566 10.0211 17.7558 10.0219L20.2539 10.0243H20.2562C20.9843 10.0243 21.6211 9.56723 21.841 8.88676C22.1804 7.83559 21.9703 6.7434 21.2324 5.72856H21.2336Z" fill="black"/>
<path d="M17.6485 12.5746L15.7856 10.6187C15.6731 10.5004 15.5168 10.4336 15.3536 10.4336H14.1497V9.62031C14.1497 9.29062 13.8825 9.02344 13.5528 9.02344C13.2231 9.02344 12.9559 9.29062 12.9559 9.62031V10.4336H11.045V9.62031C11.045 9.29062 10.7778 9.02344 10.4481 9.02344C10.1184 9.02344 9.85122 9.29062 9.85122 9.62031V10.4336H8.64731C8.48403 10.4336 8.32778 10.5004 8.21528 10.6187L6.35239 12.5746C4.89185 14.1082 4.08716 16.1191 4.08716 18.2371V20.6922C4.08716 21.0219 4.35435 21.2891 4.68403 21.2891H19.3165C19.6461 21.2891 19.9133 21.0219 19.9133 20.6922V18.2371C19.9133 16.1191 19.109 14.1082 17.6485 12.5746ZM12.0004 19.1078C10.2782 19.1078 8.877 17.7066 8.877 15.9844C8.877 14.2621 10.2782 12.8609 12.0004 12.8609C13.7227 12.8609 15.1239 14.2621 15.1239 15.9844C15.1239 17.7066 13.7227 19.1078 12.0004 19.1078Z" fill="black"/>
<path d="M12.0005 14.0543C10.9364 14.0543 10.0708 14.9199 10.0708 15.984C10.0708 17.0481 10.9364 17.9137 12.0005 17.9137C13.0646 17.9137 13.9302 17.0481 13.9302 15.984C13.9302 14.9199 13.0646 14.0543 12.0005 14.0543Z" fill="black"/>
</svg>
