<svg width="24" height="24" viewBox="0 0 24 24" fill="none" xmlns="http://www.w3.org/2000/svg">
<path d="M12 2C6.48594 2 2 6.48594 2 12C2 17.5141 6.48594 22 12 22C17.5141 22 22 17.5141 22 12C22 6.48594 17.5141 2 12 2ZM15.6824 14.5043C16.0082 14.8301 16.0082 15.3566 15.6824 15.6828C15.5199 15.8453 15.3066 15.927 15.093 15.927C14.8793 15.927 14.6664 15.8453 14.5039 15.6828L11.9996 13.1785L9.49531 15.6828C9.33281 15.8453 9.11953 15.927 8.90625 15.927C8.69297 15.927 8.4793 15.8453 8.3168 15.6828C7.99102 15.357 7.99102 14.8305 8.3168 14.5043L10.8211 12L8.3168 9.4957C7.99102 9.16992 7.99102 8.64336 8.3168 8.31719C8.64258 7.99141 9.16914 7.99141 9.49531 8.31719L11.9996 10.8215L14.5039 8.31719C14.8297 7.99141 15.3563 7.99141 15.6824 8.31719C16.0082 8.64297 16.0082 9.16953 15.6824 9.4957L13.1781 12L15.6824 14.5043Z" fill="black"/>
</svg>
