<svg width="24" height="24" viewBox="0 0 24 24" fill="none" xmlns="http://www.w3.org/2000/svg">
<g clip-path="url(#clip0_439_6860)">
<path d="M21.6565 15.8562L20.0016 17.5102L21.2457 18.7531C21.3555 18.8629 21.4176 19.0117 21.4176 19.1672C21.4176 19.3227 21.3559 19.4715 21.2461 19.5813L19.5806 21.2457C19.3609 21.4652 18.9712 21.4652 18.7516 21.2457L17.5079 20.0023L15.8529 21.6566C15.3952 22.1145 14.6526 22.1145 14.1945 21.6566C13.7364 21.1992 13.7364 20.457 14.1945 19.9992L19.9984 14.1988C20.4565 13.7414 21.1988 13.7414 21.6569 14.1988C22.1145 14.6562 22.1145 15.3984 21.6569 15.8562H21.6565Z" fill="black"/>
<path d="M9.80553 4.00038L4.00163 9.80116C3.54354 10.2586 2.80129 10.2586 2.3432 9.80116C1.88511 9.34335 1.88511 8.60155 2.3432 8.14374L3.9985 6.48944L2.75712 5.24921C2.64729 5.13944 2.58514 4.99061 2.58514 4.83475C2.58514 4.67889 2.6469 4.53046 2.75712 4.4203L4.42259 2.75624C4.53711 2.64178 4.6872 2.58436 4.8369 2.58436C4.9866 2.58436 5.13708 2.64139 5.25121 2.75585L6.4922 3.99608L8.14711 2.34218C8.6048 1.88436 9.34744 1.88436 9.80553 2.34218C10.2636 2.79999 10.2636 3.54179 9.80553 3.9996V4.00038Z" fill="black"/>
<path d="M12.536 15.0277L8.97644 11.4582L11.4639 8.97224L15.0235 12.5418L12.536 15.0277Z" fill="black"/>
<path d="M19.9984 12.5418L12.5361 19.9996C12.0784 20.4574 11.3357 20.4574 10.8776 19.9996C10.4195 19.5418 10.4195 18.8 10.8776 18.3422L18.34 10.8844C18.7977 10.4269 19.5403 10.4269 19.9984 10.8844C20.4565 11.3422 20.4565 12.084 19.9984 12.5418Z" fill="black"/>
<path d="M13.1224 5.6578L5.66005 13.1156C5.20196 13.573 4.45971 13.573 4.00201 13.1156C3.54392 12.6578 3.54392 11.916 4.00201 11.4582L11.4643 4.00038C11.922 3.54296 12.6647 3.54296 13.1228 4.00038C13.5809 4.4578 13.5809 5.19999 13.1228 5.6578H13.1224Z" fill="black"/>
</g>
<defs>
<clipPath id="clip0_439_6860">
<rect width="20" height="20" fill="white" transform="matrix(1 0 0 -1 2 22)"/>
</clipPath>
</defs>
</svg>
