<svg width="24" height="24" viewBox="0 0 24 24" fill="none" xmlns="http://www.w3.org/2000/svg">
<path d="M12 2C6.48667 2 2 6.48667 2 12C2 14.7933 3.18 17.48 5.23667 19.3667C5.24333 19.3733 5.25 19.38 5.25667 19.3833C7.1 21.07 9.49333 22 12 22C14.5067 22 16.9 21.07 18.7433 19.3833C18.75 19.3833 18.7567 19.3733 18.7633 19.3667C20.82 17.48 22 14.7933 22 12C22 6.48667 17.5133 2 12 2ZM12 6.14667C13.9067 6.14667 15.4567 7.7 15.4567 9.60333C15.4567 11.5067 13.9067 13.06 12 13.06C10.0933 13.06 8.54333 11.51 8.54333 9.60333C8.54333 7.69667 10.0933 6.14667 12 6.14667ZM18.31 18.8733C18.2667 18.9133 18.2233 18.9533 18.18 18.9867C16.4767 20.5033 14.2867 21.3333 12 21.3333C9.71333 21.3333 7.52333 20.5033 5.82 18.9867C5.77667 18.9533 5.73333 18.9133 5.69 18.8733C5.53667 18.7333 5.38667 18.5867 5.24667 18.4367C5.87333 15.7633 8.27667 13.8167 11.0833 13.8167H12.9167C15.7233 13.8167 18.1267 15.7633 18.7533 18.4367C18.6133 18.5867 18.4633 18.7333 18.31 18.8733Z" fill="black"/>
</svg>
