<svg width="24" height="24" viewBox="0 0 24 24" fill="none" xmlns="http://www.w3.org/2000/svg">
<path d="M11.8012 8.38164C12.0992 8.86602 12.2926 9.41406 12.3617 9.98398L14.9578 6.85234C15.3828 6.33945 15.9641 5.98281 16.6043 5.83047C16.0285 4.73711 14.8816 4 13.5625 4C12.5809 4.00547 11.7875 4.24453 11.082 4.7418C11.5387 5.29883 11.8301 5.9625 11.932 6.68203C12.0137 7.25977 11.9684 7.83594 11.8012 8.38164Z" fill="black"/>
<path d="M2.73623 11.2656H8.38935L7.19795 10.0628H5.02099C4.7038 10.0628 4.44677 9.80581 4.44677 9.48862C4.44677 9.17143 4.7038 8.9144 5.02099 8.9144H6.04951L4.11982 6.98433C3.8956 6.76011 3.8956 6.39644 4.11982 6.17222C4.34404 5.948 4.70771 5.948 4.93193 6.17222L6.86123 8.1019V7.07339C6.86123 6.7562 7.11826 6.49917 7.43545 6.49917C7.75263 6.49917 8.01006 6.7562 8.01006 7.07339V9.25073L10.0561 11.2656H11.1003C11.3819 10.3312 11.155 9.2855 10.464 8.55308C11.0401 7.49214 10.8675 6.1562 9.98349 5.27222C9.09912 4.38745 7.76435 4.21479 6.7038 4.79136C5.65224 3.76597 3.92607 3.75659 2.86787 4.76831C2.31865 5.28823 2.01045 5.99097 2.00029 6.74604C1.98974 7.48706 2.26748 8.18472 2.78154 8.71401C2.34756 9.51245 2.33779 10.466 2.73623 11.2656Z" fill="black"/>
<path d="M15.8602 7.59991L12.8215 11.2655H19.425L19.4801 11.2198C19.886 10.8831 20.1329 10.3878 20.1575 9.86085C20.1793 9.39405 20.0243 8.93585 19.7297 8.57804C20.4719 8.32218 21.1954 8.52921 21.2418 8.54288C21.55 8.63741 21.8774 8.46514 21.9731 8.15694C22.0692 7.84796 21.8969 7.51944 21.5879 7.42335C21.5368 7.40733 20.7645 7.1753 19.8465 7.34054C20.0114 6.42218 19.7793 5.64991 19.7637 5.59874C19.6676 5.28975 19.3387 5.11593 19.0297 5.21202C18.7208 5.30811 18.5477 5.63546 18.6442 5.94405C18.6563 5.98468 18.8645 6.70616 18.6122 7.44835C18.2407 7.08936 17.7352 6.89757 17.2184 6.9214C16.6915 6.9464 16.1965 7.19327 15.8602 7.59913V7.59991Z" fill="black"/>
<path d="M21.4137 12.4375H2.58594C2.2625 12.4375 2 12.6781 2 12.9738C2 15.3129 2.9957 17.5117 4.80313 19.1656C4.96289 19.3117 5.12695 19.452 5.2957 19.5859H18.7039C18.8727 19.452 19.0367 19.3117 19.1965 19.1656C21.0039 17.5117 21.9996 15.3129 21.9996 12.9734C21.9996 12.6773 21.7371 12.4375 21.4137 12.4375Z" fill="black"/>
</svg>
