<svg width="24" height="24" viewBox="0 0 24 24" fill="none" xmlns="http://www.w3.org/2000/svg">
<path d="M19.4545 2H4.54545C3.13955 2 2 3.13955 2 4.54545V19.4545C2 20.8605 3.13955 22 4.54545 22H11.8486V13.6782H10.1841V10.3495H11.8345V8.84546C11.8345 7.48409 12.4832 5.35682 15.3373 5.35682L17.9086 5.36727V8.21909H16.0414C15.7377 8.21909 15.3059 8.37045 15.3059 9.01864V10.35H17.9514L17.6477 13.6786H15.1773V22H19.4545C20.8605 22 22 20.8605 22 19.4545V4.54545C22 3.13955 20.8605 2 19.4545 2Z" fill="black"/>
</svg>
