<svg width="24" height="24" viewBox="0 0 24 24" fill="none" xmlns="http://www.w3.org/2000/svg">
<path d="M17.5715 17.868C17.4786 17.9608 17.425 18.0858 17.425 18.2144C17.425 18.4858 17.6465 18.7037 17.9143 18.7037H22V17.7251H17.9143C17.7858 17.7251 17.6608 17.7751 17.5679 17.868H17.5715Z" fill="black"/>
<path d="M6.575 9.1286C6.575 9.00003 6.52143 8.87146 6.42857 8.7786C6.33929 8.68931 6.21429 8.63574 6.08571 8.63574H2V9.61431H6.08571C6.35714 9.61431 6.575 9.39646 6.575 9.12503V9.1286Z" fill="black"/>
<path d="M21.0786 6.96777H18.7857C18.7857 6.96777 18.7821 6.96777 18.7786 6.96777C18.775 6.96777 18.775 6.96777 18.7714 6.96777H16.75C16.75 6.96777 16.7464 6.96777 16.7429 6.96777C16.7393 6.96777 16.7393 6.96777 16.7357 6.96777H7.26071C7.26071 6.96777 7.25714 6.96777 7.25357 6.96777C7.25 6.96777 7.25 6.96777 7.24643 6.96777H5.225C5.225 6.96777 5.22143 6.96777 5.21786 6.96777C5.21429 6.96777 5.21429 6.96777 5.21071 6.96777H2.92143C2.41429 6.96777 2 7.38206 2 7.8892V7.92492H6.08571C6.40714 7.92492 6.70714 8.04992 6.93571 8.27492C7.16071 8.49992 7.28929 8.81063 7.28929 9.12849C7.28929 9.79277 6.75 10.3321 6.08571 10.3321H2V20.2571C2 20.7642 2.41429 21.1785 2.92143 21.1785H21.0786C21.5857 21.1785 22 20.7642 22 20.2571V19.4178H17.9143C17.25 19.4178 16.7107 18.8785 16.7107 18.2142C16.7107 17.8963 16.8393 17.5856 17.0643 17.3606C17.2929 17.1356 17.5929 17.0106 17.9143 17.0106H22V7.8892C22 7.38206 21.5857 6.96777 21.0786 6.96777ZM16.7536 15.9213C16.7536 16.1178 16.5929 16.2785 16.3964 16.2785H14.2071V18.4678C14.2071 18.6642 14.0464 18.8249 13.85 18.8249H10.1571C9.96071 18.8249 9.8 18.6642 9.8 18.4678V16.2785H7.61071C7.41429 16.2785 7.25357 16.1178 7.25357 15.9213V12.2285C7.25357 12.0321 7.41429 11.8713 7.61071 11.8713H9.8V9.68206C9.8 9.48563 9.96071 9.32492 10.1571 9.32492H13.85C14.0464 9.32492 14.2071 9.48563 14.2071 9.68206V11.8713H16.3964C16.5929 11.8713 16.7536 12.0321 16.7536 12.2285V15.9213Z" fill="black"/>
<path d="M13.4894 12.2249V10.0356H10.5108V12.2249C10.5108 12.4214 10.3501 12.5821 10.1536 12.5821H7.96436V15.5606H10.1536C10.3501 15.5606 10.5108 15.7214 10.5108 15.9178V18.1071H13.4894V15.9178C13.4894 15.7214 13.6501 15.5606 13.8465 15.5606H16.0358V12.5821H13.8465C13.6501 12.5821 13.4894 12.4214 13.4894 12.2249Z" fill="black"/>
<path d="M9.18569 4.03564C8.31783 4.03564 7.61426 4.73922 7.61426 5.60707V6.2535H16.3893V5.60707C16.3893 4.73922 15.6857 4.03564 14.8178 4.03564H9.18569Z" fill="black"/>
<path d="M18.4214 6.25357V5.60714C18.4214 3.61786 16.8035 2 14.8142 2H9.18209C7.19281 2 5.57495 3.61786 5.57495 5.60714V6.25357H6.89638V5.60714C6.89638 4.34643 7.92138 3.32143 9.18209 3.32143H14.8142C16.075 3.32143 17.0999 4.34643 17.0999 5.60714V6.25357H18.4214Z" fill="black"/>
</svg>
