<svg width="66" height="65" viewBox="0 0 66 65" fill="none" xmlns="http://www.w3.org/2000/svg">
<path d="M0 32.4999C0 14.8103 14.6055 0.462158 32.6125 0.462158C50.6194 0.462158 65.2249 14.8103 65.2249 32.4999C65.2249 50.1896 50.6194 64.5377 32.6125 64.5377C14.6055 64.5377 0 50.1896 0 32.4999ZM32.6125 62.0725C49.2373 62.0725 62.7155 48.8318 62.7155 32.4999C62.7155 16.1681 49.2373 2.92734 32.6125 2.92734C15.9877 2.92734 2.50941 16.1681 2.50941 32.4999C2.50941 48.8318 15.9877 62.0725 32.6125 62.0725Z" fill="#487181"/>
<path d="M40.7092 28.9659H36.2099V24.5459C36.2099 24.0644 35.808 23.6599 35.3081 23.6599H29.907C29.4169 23.6599 29.0052 24.0547 29.0052 24.5459V28.9659H24.5059C24.0158 28.9659 23.6041 29.3607 23.6041 29.8518V35.1577C23.6041 35.6392 24.006 36.0436 24.5059 36.0436H29.0052V40.4636C29.0052 40.9451 29.4071 41.3496 29.907 41.3496H35.3081C35.7982 41.3496 36.2099 40.9547 36.2099 40.4636V36.0436H40.7092C41.1993 36.0436 41.611 35.6488 41.611 35.1577V29.8518C41.611 29.3703 41.2091 28.9659 40.7092 28.9659ZM39.8074 34.2718H35.3081C34.818 34.2718 34.4063 34.6666 34.4063 35.1577V39.5777H30.8088V35.1577C30.8088 34.6762 30.4069 34.2718 29.907 34.2718H25.4077V30.7377H29.907C30.3971 30.7377 30.8088 30.3429 30.8088 29.8518V25.4318H34.4063V29.8518C34.4063 30.3333 34.8082 30.7377 35.3081 30.7377H39.8074V34.2718ZM49.2569 24.5459H40.7092V16.1488C40.7092 14.2036 39.0918 12.6147 37.1117 12.6147H28.1132C26.1331 12.6147 24.5157 14.2036 24.5157 16.1488V24.5459H15.9681C13.988 24.5459 12.3706 26.1347 12.3706 28.0799V36.9199C12.3706 38.8651 13.988 40.454 15.9681 40.454H24.5157V48.851C24.5157 50.7962 26.1331 52.3851 28.1132 52.3851H37.1117C39.0918 52.3851 40.7092 50.7962 40.7092 48.851V40.454H49.2569C51.237 40.454 52.8543 38.8651 52.8543 36.9199V28.0799C52.8543 26.1347 51.237 24.5459 49.2569 24.5459ZM51.0605 36.9199C51.0605 37.8925 50.2469 38.6918 49.2569 38.6918H39.8074C39.3173 38.6918 38.9056 39.0866 38.9056 39.5777V48.8607C38.9056 49.8333 38.092 50.6325 37.1019 50.6325H28.1034C27.1133 50.6325 26.2997 49.8333 26.2997 48.8607V39.5777C26.2997 39.0962 25.8978 38.6918 25.3979 38.6918H15.9484C14.9584 38.6918 14.1448 37.8925 14.1448 36.9199V28.0799C14.1448 27.1073 14.9584 26.3081 15.9484 26.3081H25.3979C25.888 26.3081 26.2997 25.9133 26.2997 25.4222V16.1392C26.2997 15.1666 27.1133 14.3673 28.1034 14.3673H37.1019C38.092 14.3673 38.9056 15.1666 38.9056 16.1392V25.4222C38.9056 25.9036 39.3075 26.3081 39.8074 26.3081H49.2569C50.2469 26.3081 51.0605 27.1073 51.0605 28.0799V36.9199ZM13.7135 17.911C13.7135 17.4296 14.1154 17.0251 14.6153 17.0251H16.8699V14.8103C16.8699 14.3288 17.2718 13.9244 17.7717 13.9244C18.2716 13.9244 18.6735 14.3192 18.6735 14.8103V17.0251H20.928C21.4182 17.0251 21.8299 17.4199 21.8299 17.911C21.8299 18.4022 21.428 18.797 20.928 18.797H18.6735V21.0118C18.6735 21.4933 18.2716 21.8977 17.7717 21.8977C17.2718 21.8977 16.8699 21.5029 16.8699 21.0118V18.797H14.6153C14.1252 18.797 13.7135 18.4022 13.7135 17.911ZM43.4049 17.911C43.4049 17.4296 43.8068 17.0251 44.3067 17.0251H46.5612V14.8103C46.5612 14.3288 46.9631 13.9244 47.463 13.9244C47.963 13.9244 48.3649 14.3192 48.3649 14.8103V17.0251H50.6194C51.1095 17.0251 51.5212 17.4199 51.5212 17.911C51.5212 18.4022 51.1193 18.797 50.6194 18.797H48.3649V21.0118C48.3649 21.4933 47.963 21.8977 47.463 21.8977C46.9631 21.8977 46.5612 21.5029 46.5612 21.0118V18.797H44.3067C43.8166 18.797 43.4049 18.4022 43.4049 17.911ZM21.8103 47.0792C21.8103 47.5607 21.4084 47.9651 20.9084 47.9651H18.6539V50.1799C18.6539 50.6614 18.252 51.0659 17.7521 51.0659C17.2522 51.0659 16.8503 50.671 16.8503 50.1799V47.9651H14.5957C14.1056 47.9651 13.6939 47.5703 13.6939 47.0792C13.6939 46.5881 14.0958 46.1933 14.5957 46.1933H16.8503V43.9785C16.8503 43.497 17.2522 43.0925 17.7521 43.0925C18.252 43.0925 18.6539 43.4873 18.6539 43.9785V46.1933H20.9084C21.3986 46.1933 21.8103 46.5881 21.8103 47.0792ZM51.5016 47.0792C51.5016 47.5607 51.0997 47.9651 50.5998 47.9651H48.3453V50.1799C48.3453 50.6614 47.9434 51.0659 47.4434 51.0659C46.9435 51.0659 46.5416 50.671 46.5416 50.1799V47.9651H44.2871C43.797 47.9651 43.3853 47.5703 43.3853 47.0792C43.3853 46.5881 43.7872 46.1933 44.2871 46.1933H46.5416V43.9785C46.5416 43.497 46.9435 43.0925 47.4434 43.0925C47.9434 43.0925 48.3453 43.4873 48.3453 43.9785V46.1933H50.5998C51.0899 46.1933 51.5016 46.5881 51.5016 47.0792Z" fill="#487181"/>
</svg>
