<svg width="220" height="70" viewBox="0 0 220 70" fill="none" xmlns="http://www.w3.org/2000/svg">
<mask id="path-1-inside-1_48_8269" fill="white">
<path d="M181.987 54.1342C180.801 59.4166 179.646 64.5736 178.491 69.723L179.428 69.9964C179.479 69.9394 179.54 69.8862 179.601 69.8369C186.298 64.79 193.005 59.7507 199.757 54.7456C200.284 54.3545 201.322 54.0089 202.062 53.9861C204.732 53.914 207.406 53.9671 210.081 53.9557C215.593 53.9406 220.03 50.5836 220 46.4557C219.959 41.1468 219.939 35.8341 219.929 30.5252C219.919 22.5657 219.929 20.6292 219.929 12.6697C219.929 10.8545 219.939 9.0431 219.929 7.2279C219.909 2.9861 215.978 0.0126583 210.334 0.00506332C200.927 -0.00632916 191.52 0.00506332 182.113 0.00506332C146.962 0.00506332 44.9432 0.00506332 9.79712 0.00506332C4.9644 0.00506332 1.32721 2.0709 0.273529 5.33295C0.0759735 5.94434 0.0101166 6.57473 0.0101166 7.20131C0.00505066 22.3571 0.00506592 31.486 0 46.6418C0 50.9633 3.99687 53.9558 9.80727 53.9596C44.1833 53.9596 145.427 53.9596 179.803 53.9596H181.799C181.921 53.9596 182.012 54.0393 181.992 54.1304L181.987 54.1342Z"/>
</mask>
<path d="M181.987 54.1342C180.801 59.4166 179.646 64.5736 178.491 69.723L179.428 69.9964C179.479 69.9394 179.54 69.8862 179.601 69.8369C186.298 64.79 193.005 59.7507 199.757 54.7456C200.284 54.3545 201.322 54.0089 202.062 53.9861C204.732 53.914 207.406 53.9671 210.081 53.9557C215.593 53.9406 220.03 50.5836 220 46.4557C219.959 41.1468 219.939 35.8341 219.929 30.5252C219.919 22.5657 219.929 20.6292 219.929 12.6697C219.929 10.8545 219.939 9.0431 219.929 7.2279C219.909 2.9861 215.978 0.0126583 210.334 0.00506332C200.927 -0.00632916 191.52 0.00506332 182.113 0.00506332C146.962 0.00506332 44.9432 0.00506332 9.79712 0.00506332C4.9644 0.00506332 1.32721 2.0709 0.273529 5.33295C0.0759735 5.94434 0.0101166 6.57473 0.0101166 7.20131C0.00505066 22.3571 0.00506592 31.486 0 46.6418C0 50.9633 3.99687 53.9558 9.80727 53.9596C44.1833 53.9596 145.427 53.9596 179.803 53.9596H181.799C181.921 53.9596 182.012 54.0393 181.992 54.1304L181.987 54.1342Z" fill="white" stroke="#487181" stroke-width="4" mask="url(#path-1-inside-1_48_8269)"/>
</svg>
