<svg width="481" height="264" viewBox="0 0 481 264" fill="none" xmlns="http://www.w3.org/2000/svg">
<mask id="path-1-inside-1_199_3692" fill="white">
<path d="M384.049 263.616C386.844 246.557 389.665 229.472 392.615 211.465C374.713 211.465 44.6927 211.901 27.5865 211.209C21.7903 210.978 15.5325 208.878 10.5571 205.856C3.65816 201.68 0.990915 194.329 0.990915 186.209C0.990915 132.522 0.913975 78.8344 1.06785 25.1468C1.11915 10.7516 11.0957 0.377811 25.586 0.249739C64.6202 -0.0832464 416.517 -0.0832464 455.552 0.249739C470.35 0.377811 480.198 10.9565 480.224 25.8384C480.326 79.2698 480.352 132.701 480.224 186.158C480.198 200.938 469.914 212.182 455.244 211.106C442.01 210.133 433.316 215.102 424.853 224.323C412.311 238.053 398.693 250.834 385.536 264C385.023 263.872 384.536 263.744 384.023 263.616H384.049Z"/>
</mask>
<path d="M384.049 263.616C386.844 246.557 389.665 229.472 392.615 211.465C374.713 211.465 44.6927 211.901 27.5865 211.209C21.7903 210.978 15.5325 208.878 10.5571 205.856C3.65816 201.68 0.990915 194.329 0.990915 186.209C0.990915 132.522 0.913975 78.8344 1.06785 25.1468C1.11915 10.7516 11.0957 0.377811 25.586 0.249739C64.6202 -0.0832464 416.517 -0.0832464 455.552 0.249739C470.35 0.377811 480.198 10.9565 480.224 25.8384C480.326 79.2698 480.352 132.701 480.224 186.158C480.198 200.938 469.914 212.182 455.244 211.106C442.01 210.133 433.316 215.102 424.853 224.323C412.311 238.053 398.693 250.834 385.536 264C385.023 263.872 384.536 263.744 384.023 263.616H384.049Z" fill="white" stroke="#E79776" stroke-width="4" mask="url(#path-1-inside-1_199_3692)"/>
</svg>
