<svg width="220" height="70" viewBox="0 0 220 70" fill="none" xmlns="http://www.w3.org/2000/svg">
<mask id="path-1-inside-1_48_8265" fill="white">
<path d="M38.0134 54.1371C39.1988 59.4196 40.3538 64.5769 41.5088 69.7266L40.5716 70C40.521 69.943 40.4602 69.8899 40.3994 69.8405C33.7025 64.7934 26.9955 59.7538 20.2428 54.7485C19.716 54.3573 18.6775 54.0117 17.9379 53.9889C15.2683 53.9168 12.5936 53.9699 9.91887 53.9586C4.40735 53.9434 -0.0302392 50.5862 0.000155207 46.4581C0.0406811 41.149 0.060944 35.836 0.0710755 30.5268C0.081207 22.5669 0.0710755 20.6303 0.0710755 12.6704C0.0710755 10.8551 0.060944 9.04357 0.0710755 7.22827C0.0913385 2.98625 4.02235 0.012659 9.66558 0.00506359C19.0727 -0.00632948 28.4797 0.00506359 37.8868 0.00506359C73.0379 0.00506359 175.057 0.00506359 210.203 0.00506359C215.036 0.00506359 218.673 2.07101 219.726 5.33322C219.924 5.94465 219.99 6.57507 219.99 7.20169C219.995 22.3583 219.995 31.4876 220 46.6442C220 50.966 216.003 53.9586 210.193 53.9624C175.817 53.9624 74.5729 53.9624 40.1968 53.9624H38.2009C38.0793 53.9624 37.9881 54.0421 38.0084 54.1333L38.0134 54.1371Z"/>
</mask>
<path d="M38.0134 54.1371C39.1988 59.4196 40.3538 64.5769 41.5088 69.7266L40.5716 70C40.521 69.943 40.4602 69.8899 40.3994 69.8405C33.7025 64.7934 26.9955 59.7538 20.2428 54.7485C19.716 54.3573 18.6775 54.0117 17.9379 53.9889C15.2683 53.9168 12.5936 53.9699 9.91887 53.9586C4.40735 53.9434 -0.0302392 50.5862 0.000155207 46.4581C0.0406811 41.149 0.060944 35.836 0.0710755 30.5268C0.081207 22.5669 0.0710755 20.6303 0.0710755 12.6704C0.0710755 10.8551 0.060944 9.04357 0.0710755 7.22827C0.0913385 2.98625 4.02235 0.012659 9.66558 0.00506359C19.0727 -0.00632948 28.4797 0.00506359 37.8868 0.00506359C73.0379 0.00506359 175.057 0.00506359 210.203 0.00506359C215.036 0.00506359 218.673 2.07101 219.726 5.33322C219.924 5.94465 219.99 6.57507 219.99 7.20169C219.995 22.3583 219.995 31.4876 220 46.6442C220 50.966 216.003 53.9586 210.193 53.9624C175.817 53.9624 74.5729 53.9624 40.1968 53.9624H38.2009C38.0793 53.9624 37.9881 54.0421 38.0084 54.1333L38.0134 54.1371Z" fill="white" stroke="#E79776" stroke-width="4" mask="url(#path-1-inside-1_48_8265)"/>
</svg>
