<svg width="452" height="168" viewBox="0 0 452 168" fill="none" xmlns="http://www.w3.org/2000/svg">
<path d="M403.874 4.92747C404.659 4.18993 405.478 3.50119 406.59 2.56748L405.827 6.86628C403.892 17.7579 402.072 28.0074 400.185 38.6728L399.978 39.847H401.17C403.501 39.847 405.817 39.8826 408.119 39.918C413.12 39.9949 418.055 40.0708 422.935 39.7781C433.703 39.1392 440.71 40.4998 444.98 44.3616C449.228 48.2035 451.046 54.7825 450.716 65.3652C450.11 84.726 450.247 104.117 450.383 123.486C450.443 131.973 450.503 140.455 450.5 148.929C450.5 154.784 448.775 159.25 445.627 162.259C442.472 165.274 437.75 166.958 431.498 166.962C369.621 167.014 82.5107 167.014 20.6332 166.954C14.3253 166.947 9.58065 165.29 6.41534 162.304C3.25884 159.326 1.53234 154.894 1.52366 149.04C1.4788 118.793 1.48777 88.553 1.52366 58.3053C1.53237 52.1342 3.27633 47.5713 6.50961 44.5396C9.75363 41.4978 14.6527 39.8507 21.2699 39.847C31.0216 39.8413 55.4558 39.8429 87.075 39.8449C179.296 39.8509 332.636 39.8608 361.084 39.7053C364.202 39.6891 367.972 38.2099 370.234 36.1838L370.235 36.1835C378.469 28.8014 386.515 21.233 394.552 13.6738C397.657 10.7539 400.76 7.83542 403.872 4.92954L403.874 4.92747Z" fill="white" stroke="#487181" stroke-width="2"/>
</svg>
