<svg width="638" height="270" viewBox="0 0 638 270" fill="none" xmlns="http://www.w3.org/2000/svg">
<mask id="path-1-inside-1_199_3682" fill="white">
<path d="M49.1879 -9.15527e-05C51.8815 13.493 54.3249 25.7204 56.8784 38.5548C48.5469 38.5548 40.5659 38.9101 32.655 38.4882C8.53174 37.2151 -0.270447 43.7655 0.470581 64.9045C1.44196 92.5198 -0.0100098 223.436 0 251.073C0 263.086 7.98096 269.955 22.3207 269.962C91.376 270.014 545.153 270.014 614.208 269.955C628.658 269.94 636.629 263.197 636.649 251.184C636.699 221.163 637.4 87.8864 637.36 57.8656C637.34 45.2459 629.319 38.5622 614.208 38.5548C571.579 38.5326 144.249 38.6214 101.62 38.4142C98.4158 38.3994 94.4703 37.0227 92.1471 35.1723C79.4196 25.0247 67.1025 14.5292 54.6253 4.16701C53.2434 3.01236 51.7413 1.95393 49.1678 -9.15527e-05L49.1879 -9.15527e-05Z"/>
</mask>
<path d="M49.1879 -9.15527e-05C51.8815 13.493 54.3249 25.7204 56.8784 38.5548C48.5469 38.5548 40.5659 38.9101 32.655 38.4882C8.53174 37.2151 -0.270447 43.7655 0.470581 64.9045C1.44196 92.5198 -0.0100098 223.436 0 251.073C0 263.086 7.98096 269.955 22.3207 269.962C91.376 270.014 545.153 270.014 614.208 269.955C628.658 269.94 636.629 263.197 636.649 251.184C636.699 221.163 637.4 87.8864 637.36 57.8656C637.34 45.2459 629.319 38.5622 614.208 38.5548C571.579 38.5326 144.249 38.6214 101.62 38.4142C98.4158 38.3994 94.4703 37.0227 92.1471 35.1723C79.4196 25.0247 67.1025 14.5292 54.6253 4.16701C53.2434 3.01236 51.7413 1.95393 49.1678 -9.15527e-05L49.1879 -9.15527e-05Z" fill="white" stroke="#487181" stroke-width="4" mask="url(#path-1-inside-1_199_3682)"/>
</svg>
