<svg width="482" height="201" viewBox="0 0 482 201" fill="none" xmlns="http://www.w3.org/2000/svg">
<mask id="path-1-inside-1_199_3689" fill="white">
<path d="M83.9718 165.898C86.5599 177.588 89.0817 189 91.6034 200.395L89.5573 201C89.4467 200.874 89.3139 200.756 89.1812 200.647C74.5594 189.479 59.9155 178.327 45.172 167.251C44.0217 166.386 41.7543 165.621 40.1395 165.57C34.3107 165.411 28.4708 165.528 22.6309 165.503C10.5972 165.47 0.908342 158.041 0.974704 148.906C1.06319 137.158 1.10743 125.401 1.12955 113.653C1.15167 96.039 1.12955 45.6511 1.12955 28.0371C1.12955 24.0202 1.10743 20.0117 1.12955 15.9948C1.17379 6.60797 9.75664 0.027951 22.0779 0.0111438C42.617 -0.014067 63.1561 0.0111438 83.6953 0.0111438C160.443 0.0111438 383.188 0.0111438 459.925 0.0111438C470.477 0.0111438 478.418 4.5827 480.719 11.8014C481.15 13.1544 481.294 14.5494 481.294 15.936C481.305 49.4747 481.305 115.779 481.316 149.318C481.316 158.881 472.589 165.503 459.903 165.512C384.847 165.512 163.795 165.512 88.7388 165.512H84.381C84.1156 165.512 83.9165 165.688 83.9607 165.89L83.9718 165.898Z"/>
</mask>
<path d="M83.9718 165.898C86.5599 177.588 89.0817 189 91.6034 200.395L89.5573 201C89.4467 200.874 89.3139 200.756 89.1812 200.647C74.5594 189.479 59.9155 178.327 45.172 167.251C44.0217 166.386 41.7543 165.621 40.1395 165.57C34.3107 165.411 28.4708 165.528 22.6309 165.503C10.5972 165.47 0.908342 158.041 0.974704 148.906C1.06319 137.158 1.10743 125.401 1.12955 113.653C1.15167 96.039 1.12955 45.6511 1.12955 28.0371C1.12955 24.0202 1.10743 20.0117 1.12955 15.9948C1.17379 6.60797 9.75664 0.027951 22.0779 0.0111438C42.617 -0.014067 63.1561 0.0111438 83.6953 0.0111438C160.443 0.0111438 383.188 0.0111438 459.925 0.0111438C470.477 0.0111438 478.418 4.5827 480.719 11.8014C481.15 13.1544 481.294 14.5494 481.294 15.936C481.305 49.4747 481.305 115.779 481.316 149.318C481.316 158.881 472.589 165.503 459.903 165.512C384.847 165.512 163.795 165.512 88.7388 165.512H84.381C84.1156 165.512 83.9165 165.688 83.9607 165.89L83.9718 165.898Z" fill="white" stroke="#487181" stroke-width="4" mask="url(#path-1-inside-1_199_3689)"/>
</svg>
