<svg width="399" height="168" viewBox="0 0 399 168" fill="none" xmlns="http://www.w3.org/2000/svg">
<path d="M350.43 4.92747C351.216 4.18992 352.034 3.50117 353.147 2.56744C352.89 4.0127 352.636 5.44468 352.383 6.86573C350.449 17.7575 348.629 28.0072 346.742 38.6728L346.534 39.847H347.727C350.058 39.847 352.374 39.8826 354.676 39.918C359.677 39.9949 364.612 40.0708 369.492 39.7781C380.26 39.1392 387.267 40.4998 391.537 44.3616C395.784 48.2035 397.602 54.7825 397.272 65.3652C396.667 84.7261 396.803 104.117 396.94 123.486C397 131.973 397.059 140.455 397.057 148.929C397.057 154.784 395.332 159.25 392.184 162.259C389.029 165.274 384.307 166.958 378.055 166.962C316.177 167.014 82.2159 167.014 20.3384 166.954C14.0305 166.947 9.28585 165.29 6.12054 162.304C2.96404 159.326 1.23754 154.894 1.22886 149.04C1.184 118.793 1.19297 88.553 1.22886 58.3053C1.23757 52.1342 2.98153 47.5713 6.21481 44.5396C9.45883 41.4978 14.3579 39.8507 20.9751 39.847C30.7885 39.8413 51.962 39.8429 78.6579 39.845C155.862 39.8509 279.255 39.8605 307.641 39.7053C310.758 39.6891 314.529 38.2099 316.791 36.1838L316.791 36.1835C325.025 28.8014 333.072 21.233 341.109 13.6738C344.214 10.7539 347.317 7.83542 350.428 4.92954L350.43 4.92747Z" fill="white" stroke="#487181" stroke-width="2"/>
</svg>
